<?xml version="1.0" encoding="utf-8"?>
<!-- Generator: Adobe Illustrator 19.2.1, SVG Export Plug-In . SVG Version: 6.00 Build 0)  -->
<svg version="1.1" id="Capa_1" xmlns="http://www.w3.org/2000/svg" xmlns:xlink="http://www.w3.org/1999/xlink" x="0px" y="0px"
	 viewBox="0 0 165.2 38.9" style="enable-background:new 0 0 165.2 38.9;" xml:space="preserve">
<style type="text/css">
	.st0{fill:#FFFFFF;}
</style>
<g>
	<g>
		<g>
			<g>
				<path class="st0" d="M19,20.8c2.5,0,4.5-2,4.5-4.5c0-2.5-2-4.5-4.5-4.5s-4.5,2-4.5,4.5C14.5,18.8,16.5,20.8,19,20.8z M19,14
					c1.3,0,2.3,1,2.3,2.3c0,1.3-1.1,2.4-2.3,2.4c-1.3,0-2.3-1.1-2.3-2.4C16.7,15.1,17.7,14,19,14z"/>
				<rect x="18.2" y="4.7" class="st0" width="1.9" height="5.5"/>
				<rect x="22" y="8" transform="matrix(0.7071 -0.7071 0.7071 0.7071 1.1735 20.7559)" class="st0" width="7.2" height="1.9"/>
				<rect x="24.7" y="14.5" class="st0" width="5.5" height="1.9"/>
				<path class="st0" d="M19.3,22.3c-9.1,0.3-9.1,8.9-9.1,8.9c0,1.7,1.4,3.1,3.1,3.1h11.7c1.7,0,3.1-1.4,3.1-3.1
					C27.9,31.2,28.1,23.5,19.3,22.3z"/>
				<path class="st0" d="M30.7,0H8C3.6,0,0,3.6,0,8v22.9c0,4.4,3.6,8,8,8h22.7c4.4,0,8-3.6,8-8V8C38.7,3.6,35.1,0,30.7,0z
					 M36.6,30.3c0,3.6-2.9,6.5-6.5,6.5H8.5c-3.6,0-6.5-2.9-6.5-6.5V8.6C2.1,5,5,2.1,8.5,2.1h21.6c3.6,0,6.5,2.9,6.5,6.5V30.3z"/>
			</g>
		</g>
		<g>
			<g>
				<g>
					<g>
						<path class="st0" d="M63.3,33.9V20.9L59,29.3h-2.9l-4.3-8.4v12.9h-4.3V11.7h4.3l5.8,12l5.8-12h4.3v22.2H63.3z"/>
						<path class="st0" d="M73.3,15.6c-1.4,0-2.6-1.2-2.6-2.6c0-1.4,1.2-2.5,2.6-2.5c1.4,0,2.5,1.1,2.5,2.5
							C75.8,14.5,74.7,15.6,73.3,15.6z M71.2,33.9V17.6h4.1v16.2H71.2z"/>
					</g>
					
						<rect x="149.3" y="9.4" transform="matrix(0.7066 -0.7076 0.7076 0.7066 37.8723 113.8854)" class="st0" width="13.9" height="3.6"/>
					<rect x="142.2" y="3" class="st0" width="3.6" height="10.5"/>
					<rect x="154.5" y="21.5" class="st0" width="10.7" height="3.6"/>
					<path class="st0" d="M146.6,28.6c-0.9,0.9-1.9,1.3-3.2,1.3c-1.2,0-2.3-0.4-3.1-1.3c-0.9-0.9-1.3-2-1.3-3.2
						c0-1.3,0.5-2.3,1.3-3.2c0.9-0.9,1.9-1.3,3.1-1.3c1.3,0,2.3,0.4,3.2,1.3c0.8,0.9,1.2,1.9,1.3,3.2
						C147.9,26.6,147.5,27.7,146.6,28.6 M149.5,19.3c-1.7-1.7-3.7-2.5-6-2.5c-2.3,0-4.3,0.8-5.9,2.5c-1.7,1.7-2.5,3.7-2.5,6.1
						c0,2.3,0.8,4.4,2.5,6c1.6,1.7,3.6,2.5,5.9,2.5c2.3,0,4.3-0.9,6-2.5c1.6-1.6,2.5-3.7,2.5-6C152,23.1,151.1,21,149.5,19.3"/>
					<path class="st0" d="M90,12.7c-2.9,0-5.4,1-7.4,3.1c-2.1,2.1-3.1,4.5-3.1,7.5c0,2.9,1,5.4,3.1,7.5c2,2,4.5,3.1,7.4,3.1
						c2.3,0,4.5-0.7,6.4-2.2c1.8-1.5,3-3.3,3.7-5.6h-4.3c-0.5,1.1-1.3,2-2.3,2.7c-1.1,0.7-2.2,1-3.5,1c-1.8,0-3.3-0.7-4.6-1.9
						c-1.3-1.3-1.9-2.8-1.9-4.6c0-1.8,0.6-3.3,1.9-4.6c1.3-1.3,2.8-1.9,4.6-1.9c1.3,0,2.4,0.3,3.5,1.1c1,0.7,1.8,1.6,2.3,2.7h4.3
						c-0.6-2.3-1.8-4.1-3.7-5.6C94.5,13.4,92.4,12.6,90,12.7"/>
					<path class="st0" d="M117.5,26l0.8-0.4v1.6c0,1.4-0.4,2.4-1.1,2.9c-0.8,0.5-1.6,0.8-2.5,0.8c-0.6,0-1.1-0.2-1.4-0.5
						c-0.4-0.4-0.6-0.9-0.6-1.6c0-0.8,0.3-1.4,1-1.8c0.4-0.2,1.1-0.4,1.9-0.5L117.5,26z M115.8,16.8c-2.7,0-4.6,0.7-5.7,2.2
						c-0.7,0.9-1.1,2.1-1.2,3.6h4.1c0.1-0.7,0.3-1.2,0.6-1.5c0.4-0.5,1.1-0.8,2.2-0.8c0.9,0,1.5,0.1,2,0.4c0.5,0.2,0.7,0.7,0.7,1.4
						c0,0.5-0.3,1-0.9,1.2l-3.1,0.5c-1.4,0.2-2.6,0.5-3.5,1.1c-1.5,0.9-2.3,2.3-2.2,4.4c0,1.4,0.4,2.6,1.4,3.5
						c0.8,0.7,2,1.1,3.3,1.1c2.2,0,4-0.6,5.2-1.7v1.7h4.1v-12c0-2-0.7-3.3-2-4C119.1,17.1,117.5,16.8,115.8,16.8"/>
					<rect x="102.1" y="12.7" class="st0" width="4.1" height="21.2"/>
					<path class="st0" d="M132,17.4c-1.1,0.4-2.1,1.2-2.9,2.3v-2.1l-3.9,0v16.3h4v-7.8c0-1.3,0.2-2.3,0.5-2.9
						c0.3-0.6,0.8-1.1,1.4-1.6c0.7-0.5,1.4-0.7,2.2-0.7l1.2,0.1l0-4.1l-1.1,0.1L132,17.4z"/>
				</g>
			</g>
		</g>
	</g>
</g>
</svg>
